<mxfile><diagram id="CnQnBmzaKuSAoapPF1UE" name="Page-1"><mxGraphModel dx="1822" dy="991" grid="1" gridSize="10" guides="1" tooltips="1" connect="1" arrows="1" fold="1" page="1" pageScale="1" pageWidth="850" pageHeight="1100" background="#ffffff" math="0" shadow="0"><root><mxCell id="0"/><mxCell id="1" parent="0"/><mxCell id="82" style="edgeStyle=none;html=1;exitX=0.5;exitY=0;exitDx=0;exitDy=0;strokeColor=#000000;fontSize=22;fontColor=#000000;entryX=0.5;entryY=0;entryDx=0;entryDy=0;" parent="1" source="14" target="65" edge="1"><mxGeometry relative="1" as="geometry"><mxPoint x="252" y="400" as="targetPoint"/></mxGeometry></mxCell><mxCell id="14" value="" style="rounded=0;whiteSpace=wrap;html=1;sketch=0;rotation=-180;" parent="1" vertex="1"><mxGeometry x="197.5" y="282.5" width="110" height="25" as="geometry"/></mxCell><mxCell id="38" style="edgeStyle=orthogonalEdgeStyle;html=1;exitX=0.5;exitY=1;exitDx=0;exitDy=0;entryX=0.5;entryY=1;entryDx=0;entryDy=0;strokeColor=#000000;fontSize=22;fontColor=#000000;" parent="1" source="35" target="14" edge="1"><mxGeometry relative="1" as="geometry"/></mxCell><mxCell id="35" value="" style="ellipse;whiteSpace=wrap;html=1;aspect=fixed;sketch=0;fillColor=#f5f5f5;fontColor=#333333;strokeColor=#666666;" parent="1" vertex="1"><mxGeometry x="212.5" y="142.5" width="80" height="80" as="geometry"/></mxCell><mxCell id="47" value="" style="ellipse;whiteSpace=wrap;html=1;aspect=fixed;sketch=0;fillColor=#f5f5f5;fontColor=#333333;strokeColor=#666666;" parent="1" vertex="1"><mxGeometry x="440" y="142.5" width="80" height="80" as="geometry"/></mxCell><mxCell id="50" value="" style="ellipse;whiteSpace=wrap;html=1;aspect=fixed;sketch=0;fillColor=#f5f5f5;fontColor=#333333;strokeColor=#666666;" parent="1" vertex="1"><mxGeometry x="740" y="142.5" width="80" height="80" as="geometry"/></mxCell><mxCell id="51" value="" style="ellipse;whiteSpace=wrap;html=1;aspect=fixed;sketch=0;fontSize=22;fontColor=#000000;strokeColor=#000000;" parent="1" vertex="1"><mxGeometry x="232.5" y="162.5" width="40" height="40" as="geometry"/></mxCell><mxCell id="52" value="" style="ellipse;whiteSpace=wrap;html=1;aspect=fixed;sketch=0;fontSize=22;fontColor=#000000;strokeColor=#000000;" parent="1" vertex="1"><mxGeometry x="460" y="162.5" width="40" height="40" as="geometry"/></mxCell><mxCell id="53" value="" style="ellipse;whiteSpace=wrap;html=1;aspect=fixed;sketch=0;fontSize=22;fontColor=#000000;strokeColor=#000000;" parent="1" vertex="1"><mxGeometry x="760" y="162.5" width="40" height="40" as="geometry"/></mxCell><mxCell id="57" value="&lt;font color=&quot;#000000&quot;&gt;&lt;span style=&quot;font-size: 22px;&quot;&gt;&lt;b&gt;Процесс 0&lt;/b&gt;&lt;/span&gt;&lt;/font&gt;" style="text;html=1;align=center;verticalAlign=middle;resizable=0;points=[];autosize=1;strokeColor=none;fillColor=none;" parent="1" vertex="1"><mxGeometry x="187.5" y="62.5" width="130" height="40" as="geometry"/></mxCell><mxCell id="58" value="&lt;font color=&quot;#000000&quot;&gt;&lt;span style=&quot;font-size: 22px;&quot;&gt;&lt;b&gt;Процесс 1&lt;/b&gt;&lt;/span&gt;&lt;/font&gt;" style="text;html=1;align=center;verticalAlign=middle;resizable=0;points=[];autosize=1;strokeColor=none;fillColor=none;" parent="1" vertex="1"><mxGeometry x="405" y="62.5" width="130" height="40" as="geometry"/></mxCell><mxCell id="59" value="&lt;font color=&quot;#000000&quot;&gt;&lt;span style=&quot;font-size: 22px;&quot;&gt;&lt;b&gt;Процесс n&lt;/b&gt;&lt;/span&gt;&lt;/font&gt;" style="text;html=1;align=center;verticalAlign=middle;resizable=0;points=[];autosize=1;strokeColor=none;fillColor=none;" parent="1" vertex="1"><mxGeometry x="710" y="62.5" width="140" height="40" as="geometry"/></mxCell><mxCell id="89" style="edgeStyle=none;html=1;exitX=0.5;exitY=1;exitDx=0;exitDy=0;entryX=0.5;entryY=1;entryDx=0;entryDy=0;strokeColor=#000000;fontSize=22;fontColor=#000000;" parent="1" source="65" target="88" edge="1"><mxGeometry relative="1" as="geometry"><mxPoint x="252.5" y="540" as="sourcePoint"/></mxGeometry></mxCell><mxCell id="65" value="" style="ellipse;whiteSpace=wrap;html=1;aspect=fixed;sketch=0;fillColor=#f5f5f5;fontColor=#333333;strokeColor=#666666;" parent="1" vertex="1"><mxGeometry x="212.5" y="400" width="80" height="80" as="geometry"/></mxCell><mxCell id="182" style="edgeStyle=none;html=1;entryX=0;entryY=0.5;entryDx=0;entryDy=0;strokeColor=#000000;exitX=0;exitY=1;exitDx=0;exitDy=0;" edge="1" parent="1" source="47" target="88"><mxGeometry relative="1" as="geometry"><mxPoint x="456" y="472" as="sourcePoint"/></mxGeometry></mxCell><mxCell id="183" style="edgeStyle=none;html=1;exitX=0;exitY=1;exitDx=0;exitDy=0;entryX=0;entryY=0.25;entryDx=0;entryDy=0;strokeColor=#000000;" edge="1" parent="1" source="50" target="88"><mxGeometry relative="1" as="geometry"><mxPoint x="751.7157287525533" y="468.28427124744667" as="sourcePoint"/></mxGeometry></mxCell><mxCell id="184" style="edgeStyle=none;html=1;exitX=0.5;exitY=0;exitDx=0;exitDy=0;strokeColor=#000000;entryX=0.5;entryY=0;entryDx=0;entryDy=0;" edge="1" parent="1" source="88" target="185"><mxGeometry relative="1" as="geometry"><mxPoint x="251.6363636363635" y="790" as="targetPoint"/></mxGeometry></mxCell><mxCell id="88" value="" style="rounded=0;whiteSpace=wrap;html=1;sketch=0;rotation=-180;strokeColor=#000000;" parent="1" vertex="1"><mxGeometry x="197.5" y="660" width="110" height="25" as="geometry"/></mxCell><mxCell id="90" style="edgeStyle=none;html=1;exitX=0.5;exitY=1;exitDx=0;exitDy=0;entryX=0.5;entryY=1;entryDx=0;entryDy=0;strokeColor=#000000;fontSize=22;fontColor=#000000;" parent="1" source="47" edge="1"><mxGeometry relative="1" as="geometry"><mxPoint x="480" y="480" as="sourcePoint"/><mxPoint x="480" y="660" as="targetPoint"/></mxGeometry></mxCell><mxCell id="92" style="edgeStyle=none;html=1;exitX=0.5;exitY=1;exitDx=0;exitDy=0;entryX=0.5;entryY=1;entryDx=0;entryDy=0;strokeColor=#000000;fontSize=22;fontColor=#000000;" parent="1" source="50" edge="1"><mxGeometry relative="1" as="geometry"><mxPoint x="780" y="480" as="sourcePoint"/><mxPoint x="780" y="660" as="targetPoint"/></mxGeometry></mxCell><mxCell id="186" style="edgeStyle=none;html=1;strokeColor=#000000;" edge="1" parent="1" source="185"><mxGeometry relative="1" as="geometry"><mxPoint x="252.5" y="940.0000000000002" as="targetPoint"/></mxGeometry></mxCell><mxCell id="185" value="" style="ellipse;whiteSpace=wrap;html=1;aspect=fixed;sketch=0;fillColor=#f5f5f5;fontColor=#333333;strokeColor=#666666;" vertex="1" parent="1"><mxGeometry x="212.5" y="790" width="80" height="80" as="geometry"/></mxCell><mxCell id="187" value="" style="rounded=0;whiteSpace=wrap;html=1;sketch=0;rotation=-180;" vertex="1" parent="1"><mxGeometry x="197.5" y="940" width="110" height="25" as="geometry"/></mxCell><mxCell id="189" value="&lt;font color=&quot;#000000&quot;&gt;&lt;span style=&quot;font-size: 22px;&quot;&gt;&lt;b&gt;Print&lt;/b&gt;&lt;/span&gt;&lt;/font&gt;" style="text;html=1;align=center;verticalAlign=middle;resizable=0;points=[];autosize=1;strokeColor=none;fillColor=none;" vertex="1" parent="1"><mxGeometry x="107.5" y="932.5" width="70" height="40" as="geometry"/></mxCell><mxCell id="191" value="" style="ellipse;whiteSpace=wrap;html=1;aspect=fixed;sketch=0;fillColor=#f5f5f5;fontColor=#333333;strokeColor=#666666;" vertex="1" parent="1"><mxGeometry x="740" y="632.5" width="80" height="80" as="geometry"/></mxCell><mxCell id="193" value="" style="ellipse;whiteSpace=wrap;html=1;aspect=fixed;sketch=0;fillColor=#f5f5f5;fontColor=#333333;strokeColor=#666666;" vertex="1" parent="1"><mxGeometry x="440" y="632.5" width="80" height="80" as="geometry"/></mxCell><mxCell id="194" value="&lt;font color=&quot;#000000&quot;&gt;&lt;span style=&quot;font-size: 22px;&quot;&gt;&lt;b&gt;Gather&lt;/b&gt;&lt;/span&gt;&lt;/font&gt;" style="text;html=1;align=center;verticalAlign=middle;resizable=0;points=[];autosize=1;strokeColor=none;fillColor=none;" vertex="1" parent="1"><mxGeometry x="97.5" y="652.5" width="90" height="40" as="geometry"/></mxCell></root></mxGraphModel></diagram></mxfile>